<?xml version="1.0" encoding="utf-8"?>
<!-- Generator: Adobe Illustrator 23.0.3, SVG Export Plug-In . SVG Version: 6.00 Build 0)  -->
<svg version="1.1" id="Layer_1" xmlns="http://www.w3.org/2000/svg" xmlns:xlink="http://www.w3.org/1999/xlink" x="0px" y="0px"
	 viewBox="0 0 852.9 485.2" style="enable-background:new 0 0 852.9 485.2;" xml:space="preserve">
<title>Brain and Machine</title>
<g>
	<path d="M166.5,75.7c-21.8-0.1-39.5,17.6-39.6,39.4c0,2.4,0.2,4.7,0.6,7.1c-31.7-8.9-64.6,9.6-73.4,41.3c-2.9,10.5-2.9,21.7,0,32.2
		c-22.3,10-32.3,36.2-22.2,58.6c1,2.2,2.2,4.3,3.5,6.4c2,3.1,4.5,5.9,7.2,8.4c-25.3,21-28.8,58.5-7.8,83.8
		c6.7,8,15.3,14.2,25.1,17.8v15.1c0,25.5,20.7,46.2,46.2,46.2c8.1,0,16-2.1,23-6.2c19.1,16.9,48.3,15,65.2-4.1
		c7.4-8.4,11.5-19.3,11.5-30.5V115.3C205.9,93.5,188.3,75.7,166.5,75.7z M193.9,391.2c0,18.9-15.3,34.2-34.1,34.2
		c-7.5,0-14.8-2.5-20.8-7.1c8.6-8.6,13.4-20.3,13.4-32.5c0-3.3-2.7-6-6-6s-6,2.7-6,6c0,18.9-15.3,34.2-34.2,34.2S72,404.7,72,385.8
		v-12.1c2.9,0.4,5.8,0.6,8.7,0.6c3.3,0,6-2.7,6-6s-2.7-6-6-6c-26.3,0-47.5-21.3-47.6-47.6c0-26.3,21.3-47.5,47.6-47.6
		c3.3,0,6-2.7,6-6s-2.7-6-6-6c-9.6,0-19.1,2.3-27.6,6.8c-14.3-10.6-17.3-30.9-6.7-45.2c2.2-3,4.9-5.6,8-7.6c1.3-0.9,2.7-1.6,4.1-2.3
		c0.4,0.8,0.9,1.6,1.3,2.5c1.6,2.9,5.3,3.9,8.2,2.3c2.9-1.6,3.9-5.3,2.3-8.2c0,0,0-0.1-0.1-0.1c-13.1-22.8-5.3-51.9,17.4-65
		c16.4-9.4,36.8-8.3,52,2.9c2.7,2,6.4,1.4,8.4-1.2c2-2.7,1.4-6.4-1.2-8.4l0,0c-1.5-1.1-2.9-2.1-4.5-3c-7.4-13.3-2.6-30,10.7-37.4
		s30-2.6,37.4,10.7c2.3,4.1,3.5,8.7,3.5,13.3L193.9,391.2L193.9,391.2z"/>
	<path d="M176.3,267.2c-5.4-3.9-11.9-6-18.6-6c1.3-8.8-1.1-17.8-6.6-24.7c-2.1-2.6-5.9-3-8.4-0.9c-2.6,2.1-3,5.9-0.9,8.4
		c4.5,5.7,5.6,13.3,2.8,20c-12.8,5.8-20.4,19.3-18.6,33.2c0.4,3,2.9,5.2,5.9,5.2c0.3,0,0.5,0,0.8-0.1c3.3-0.4,5.6-3.4,5.2-6.7l0,0
		c-0.4-3-0.1-6,0.8-8.8c3.5-10.4,14.7-16.1,25.2-12.6c1.9,0.6,3.7,1.6,5.4,2.7c2.7,1.9,6.4,1.3,8.4-1.4S179,269.2,176.3,267.2z"/>
	<path d="M87.7,224.6c3.8-6,4.9-13.4,3.1-20.3c-0.8-3.2-4.1-5.1-7.3-4.3s-5.1,4.1-4.3,7.3c1.7,6.5-1.5,13.3-7.5,16.2
		c-3,1.5-4.2,5-2.8,8c1.5,3,5,4.2,8,2.8c0.5-0.2,0.9-0.5,1.3-0.7c1.3,2.5,2.9,4.7,4.9,6.7c2.4,2.3,6.2,2.3,8.5-0.1l0,0l0,0
		c2.3-2.4,2.3-6.2-0.1-8.5C89.7,229.8,88.3,227.3,87.7,224.6z"/>
	<path d="M122.3,168.1L122.3,168.1c7.6-1.9,15.3,2.7,17.2,10.2c0.9,3.5,0.4,7.2-1.3,10.3c-1.6,2.9-0.6,6.5,2.3,8.2
		c2.9,1.6,6.5,0.6,8.2-2.3l0,0c2.4-4.4,3.5-9.3,3.2-14.2c6.8-0.2,13.2-3,18-7.8c2.3-2.4,2.3-6.2,0-8.5c-2.4-2.3-6.2-2.3-8.5,0
		c0,0,0,0-0.1,0.1c-3.5,3.6-8.6,5-13.4,3.8c-0.1-0.2-0.2-0.3-0.3-0.5c-6.2-9.3-17.5-13.6-28.3-10.9c-3.2,0.8-5.1,4.1-4.3,7.3
		S119.1,169,122.3,168.1z"/>
	<path d="M140,339.3c-7.7,5.4-17.8,6.1-26.2,1.8c-1.9-5.2-4.9-10-8.8-13.9c-2.3-2.4-6.1-2.4-8.5-0.1s-2.4,6.1-0.1,8.5
		c0,0,0,0,0.1,0.1c3,3,5.2,6.7,6.4,10.8c0,0.2,0.1,0.4,0.2,0.6c2.1,7.9,0.3,16.4-4.9,22.7c-2.1,2.6-1.7,6.4,0.9,8.4
		c2.5,2.1,6.3,1.7,8.4-0.8c5.3-6.4,8.3-14.5,8.5-22.8c10.6,2.8,21.9,0.8,30.9-5.5c2.7-1.9,3.4-5.6,1.5-8.4
		C146.4,338.1,142.7,337.4,140,339.3z"/>
	<path d="M398.1,326.6v-43.1c0-2.4-1.4-4.5-3.6-5.5l-12.3-5.5c0.3-0.6,0.6-1.2,0.7-1.8l9.1-41.9c11.3-2.7,18.2-14.1,15.4-25.3
		c-2.3-9.4-10.7-16-20.3-16l-23.5-32.9c7.8-8.5,7.3-21.8-1.2-29.6c-5.3-4.9-12.8-6.7-19.7-4.8l-24.2-10l-2.4-15.6
		c-0.3-2.1-1.7-3.9-3.7-4.6l-21.7-8.7c-2.3-11.4-13.4-18.7-24.8-16.3c-8.5,1.7-15.1,8.6-16.5,17.1L225.3,98
		c-1.3,0.8-2.2,2.1-2.5,3.6l-5.5,22.3c-0.1,0.5-0.2,1-0.2,1.4v265.9c0,1,0.3,2,0.8,2.9l11.6,21c-6.3,9.7-3.5,22.7,6.2,29
		s22.7,3.5,29-6.2c1.1-1.7,1.9-3.5,2.5-5.4h30.5c4.4,10.7,16.7,15.9,27.4,11.5c9.4-3.9,14.7-14,12.5-23.9l14.7-17.8
		c11.5,1.6,22-6.4,23.6-17.9c0.9-6.2-1.1-12.5-5.4-17.1c2.3-1.3,4.6-2.7,6.7-4.3c10.2,5.4,22.9,1.5,28.4-8.7
		C410.9,344.6,407.5,332.4,398.1,326.6z M387.1,199.5c5,0,9,4,9,9s-4,9-9,9s-9-4-9-9S382.1,199.5,387.1,199.5z M348.1,131.5
		c5,0,9,4,9,9s-4,9-9,9s-9-4-9-9S343.1,131.5,348.1,131.5z M270.1,76.5c5,0,9,4,9,9s-4,9-9,9s-9-4-9-9S265.1,76.5,270.1,76.5z
		 M229.1,126l4.8-19.3l17.6-11.6c5.3,10.3,17.9,14.4,28.2,9.1c4.4-2.2,7.8-6,9.7-10.5l15.3,6.1l6.5,41.6c0.5,3.3,3.6,5.5,6.9,5
		s5.5-3.6,5-6.9l-2.4-15.5l10.4,4.3c-6.7,9.4-4.5,22.5,4.9,29.2c5,3.6,11.4,4.8,17.4,3.2l21.9,30.4c-9.5,6.6-11.9,19.7-5.3,29.2
		c2.5,3.6,6,6.3,10.1,7.8l-8.6,39.5l-18.3-8.1v-29.1c0-3.3-2.7-6-6-6h-17.9v-22.9c11.1-3.3,17.4-15,14.1-26.1s-15-17.4-26.1-14.1
		c-6.1,1.8-11,6.3-13.4,12.1h-50.6v-25.3c0-3.3-2.7-6-6-6h-18V126H229.1z M278.1,210.4v-24.9h24.4c1.5,7.7,7.1,13.9,14.6,16.1v22.9
		h-24.9C290.2,217.7,284.9,212.4,278.1,210.4z M281.1,230.5c0,5-4,9-9,9s-9-4-9-9s4-9,9-9S281.1,225.5,281.1,230.5z M314.1,181.5
		c0-5,4-9,9-9s9,4,9,9s-4,9-9,9S314.1,186.5,314.1,181.5z M229.1,154.2h12v25.3c0,3.3,2.7,6,6,6h19v24.9
		c-11.1,3.3-17.4,15-14.1,26.1c2,6.8,7.3,12.1,14.1,14.1v8.9h-37V154.2z M247.1,435.5c-5,0-9-4-9-9s4-9,9-9s9,4,9,9
		S252.1,435.5,247.1,435.5z M296.5,420.5h-29.3c-3.3-11.1-15-17.4-26.1-14.1c-0.8,0.2-1.5,0.5-2.3,0.8l-9.7-17.6v-47.1H265
		c2,6.8,7.3,12.1,14.1,14.1v15.9c0,3.3,2.7,6,6,6h26v25.9C303.6,406.6,298,412.8,296.5,420.5z M276.1,336.5c0-5,4-9,9-9s9,4,9,9
		s-4,9-9,9S276.1,341.5,276.1,336.5z M317.1,433.5c-5,0-9-4-9-9s4-9,9-9s9,4,9,9S322.1,433.5,317.1,433.5z M331.2,409
		c-2.3-2.1-5.1-3.7-8.1-4.6v-31.9c0-3.3-2.7-6-6-6h-26v-9.9c11.1-3.3,17.4-15,14.1-26.1s-15-17.4-26.1-14.1
		c-6.8,2-12.1,7.3-14.1,14.1h-35.9v-59h57.3l8.8,34.5c0.7,2.7,3.1,4.5,5.8,4.5h35.9c2,6.8,7.3,12.1,14.1,14.1v36.3
		c-11.4,2.2-18.8,13.2-16.6,24.5c0.9,4.5,3.2,8.6,6.6,11.6L331.2,409z M348.1,304.5c0-5,4-9,9-9s9,4,9,9s-4,9-9,9
		S348.1,309.5,348.1,304.5z M363.2,385.4c-1.5,3.1-4.7,5.1-8.1,5.1l0,0c-0.7,0-1.4-0.1-2.1-0.3c-0.6-0.3-1.1-0.5-1.8-0.6
		c-4.5-2.2-6.3-7.5-4.2-12c2.2-4.5,7.5-6.3,12-4.2C363.5,375.6,365.4,381,363.2,385.4z M366.1,345.5c0.1,3.2,1,6.2,2.5,9
		c-1.8,1.2-3.6,2.2-5.5,3.2v-33c11.1-3.3,17.4-15,14.1-26.1s-15-17.4-26.1-14.1c-6.8,2-12.1,7.3-14.1,14.1h-31.2l-8.8-34.5
		c-0.7-2.7-3.1-4.5-5.8-4.5h-13v-8.9c6.8-2,12.1-7.3,14.1-14.1h48.8v26.8c0,2.4,1.4,4.6,3.6,5.7l41.4,18.4v36.2
		C374.5,324.1,365.6,333.9,366.1,345.5z M395.2,348.4c-1.5,3.1-4.7,5.1-8.1,5.1c-5,0-9-4-9-9s4-9,9-9c0.7,0,1.5,0.1,2.2,0.3
		c0.6,0.3,1.1,0.5,1.8,0.6C395.5,338.5,397.4,343.9,395.2,348.4z"/>
</g>
<path d="M797.3,263.2H601.2v112.5l-23.3,46.7v1.1c0,9.3,3.3,20.2,12.5,20.2h217.9c9.2,0,12.5-10.9,12.5-20.2v-1.1l-23.3-46.7V263.2z
	 M610.5,272.6H788v99.6H610.5V272.6z M808.2,434.4H590.3c-0.9,0-2.1-2.7-2.7-6.2h223.3C810.3,431.7,809.1,434.4,808.2,434.4z
	 M808.4,418.9H590.1l18.7-37.4h181L808.4,418.9z"/>
<rect x="626" y="294.4" transform="matrix(0.7071 -0.7071 0.7071 0.7071 -24.8686 538.0034)" width="22" height="9.3"/>
<rect x="619.5" y="302.1" transform="matrix(0.7071 -0.7071 0.7071 0.7071 -25.8128 551.2894)" width="66" height="9.3"/>
<path d="M283,76.5v-3.2c31.7,0,63.4,0,95.1,0c0,1.1,0,2.1,0.1,3.2C346.4,76.5,314.7,76.5,283,76.5z"/>
<rect x="372.9" y="105.7" transform="matrix(0.7071 -0.7071 0.7071 0.7071 36.5017 302.5645)" width="21.2" height="3"/>
<rect x="359" y="119.6" transform="matrix(0.7071 -0.7071 0.7071 0.7071 22.5748 296.7879)" width="21.2" height="3"/>
<rect x="397.5" y="326" transform="matrix(0.7071 -0.7071 0.7071 0.7071 -112.0502 384.4868)" width="21.2" height="3"/>
<path d="M369.1,76.5v-3.2c31.7,0,63.4,0,95.1,0c0,1.1,0,2.1,0.1,3.2C432.5,76.5,400.8,76.5,369.1,76.5z"/>
<path d="M458.6,76.5v-3.2c31.7,0,63.4,0,95.1,0c0,1.1,0,2.1,0.1,3.2C522,76.5,490.3,76.5,458.6,76.5z"/>
<path d="M526.2,76.5v-3.2c31.7,0,63.4,0,95.1,0c0,1.1,0,2.1,0.1,3.2C589.7,76.5,557.9,76.5,526.2,76.5z"/>
<path d="M605.7,76.5v-3.2c31.7,0,63.4,0,95.1,0c0,1.1,0,2.1,0.1,3.2C669.2,76.5,637.4,76.5,605.7,76.5z"/>
<path d="M389.7,101.8v-3.2c31.7,0,63.4,0,95.1,0c0,1.1,0,2.1,0.1,3.2C453.1,101.9,421.4,101.9,389.7,101.8z"/>
<path d="M475.1,101.8v-3.2c31.7,0,63.4,0,95.1,0c0,1.1,0,2.1,0.1,3.2C538.5,101.9,506.8,101.9,475.1,101.8z"/>
<path d="M697.7,174.1h3.2c0,31.7,0,63.4,0,95.1c-1.1,0-2.1,0-3.2,0.1C697.7,237.6,697.7,205.8,697.7,174.1z"/>
<path d="M697.7,93.7h3.2c0,31.7,0,63.4,0,95.1c-1.1,0-2.1,0-3.2,0.1C697.7,157.1,697.7,125.4,697.7,93.7z"/>
<path d="M697.7,73.6h3.2c0,31.7,0,63.4,0,95.1c-1.1,0-2.1,0-3.2,0.1C697.7,137,697.7,105.3,697.7,73.6z"/>
<path d="M689.6,171.3h3.2c0,31.7,0,63.4,0,95.1c-1.1,0-2.1,0-3.2,0.1C689.6,234.7,689.6,203,689.6,171.3z"/>
<path d="M680.9,171.3h3.2c0,31.7,0,63.4,0,95.1c-1.1,0-2.1,0-3.2,0.1C680.8,234.7,680.8,203,680.9,171.3z"/>
<path d="M672.3,171.3h3.2c0,31.7,0,63.4,0,95.1c-1.1,0-2.1,0-3.2,0.1C672.3,234.7,672.3,203,672.3,171.3z"/>
<path d="M663.8,171.3h3.2c0,31.7,0,63.4,0,95.1c-1.1,0-2.1,0-3.2,0.1C663.8,234.7,663.8,203,663.8,171.3z"/>
<path d="M689.6,101.9h3.2c0,31.7,0,63.4,0,95.1c-1.1,0-2.1,0-3.2,0.1C689.6,165.3,689.6,133.6,689.6,101.9z"/>
<path d="M564.1,101.8v-3.2c31.7,0,63.4,0,95.1,0c0,1.1,0,2.1,0.1,3.2C627.5,101.9,595.8,101.9,564.1,101.8z"/>
<path d="M597.7,101.8v-3.2c31.7,0,63.4,0,95.1,0c0,1.1,0,2.1,0.1,3.2C661.1,101.9,629.4,101.9,597.7,101.8z"/>
<rect x="397.5" y="189" transform="matrix(0.7071 -0.7071 0.7071 0.7071 -15.1766 344.3604)" width="21.2" height="3"/>
<rect x="406.5" y="180" transform="matrix(0.7071 -0.7071 0.7071 0.7071 -6.1725 348.0984)" width="21.2" height="3"/>
<rect x="419.1" y="167.4" transform="matrix(0.7071 -0.7071 0.7071 0.7071 6.4638 353.3061)" width="21.2" height="3"/>
<path d="M681,124.1h3.2c0,31.7,0,63.4,0,95.1c-1.1,0-2.1,0-3.2,0.1C680.9,187.5,681,155.8,681,124.1z"/>
<path d="M672.3,149.5h3.2c0,31.7,0,63.4,0,95.1c-1.1,0-2.1,0-3.2,0.1C672.3,212.9,672.3,181.2,672.3,149.5z"/>
<path d="M684.1,124.1v3.2c-31.7,0-63.4,0-95.1,0c0-1.1,0-2.1-0.1-3.2C620.7,124.1,652.4,124.1,684.1,124.1z"/>
<path d="M610.5,124.1v3.2c-31.7,0-63.4,0-95.1,0c0-1.1,0-2.1-0.1-3.2C547.1,124.1,578.8,124.1,610.5,124.1z"/>
<path d="M567.2,124.1v3.2c-31.7,0-63.4,0-95.1,0c0-1.1,0-2.1-0.1-3.2C503.8,124.1,535.5,124.1,567.2,124.1z"/>
<path d="M447.4,357.7l2.2,2.2c-22.4,22.4-44.8,44.8-67.2,67.2c-0.8-0.7-1.5-1.5-2.3-2.2C402.5,402.5,425,380.1,447.4,357.7z"/>
<rect x="332.1" y="425" width="21.2" height="3"/>
<rect x="645.8" y="171.1" width="21.2" height="3"/>
<rect x="346.5" y="425" width="21.2" height="3"/>
<rect x="361" y="425" width="21.2" height="3"/>
<path d="M477.9,256l2.2,2.2c-22.4,22.4-44.8,44.8-67.2,67.2c-0.8-0.7-1.5-1.5-2.3-2.2C433.1,300.8,455.5,278.4,477.9,256z"/>
<rect x="585.5" y="149.3" width="21.2" height="3"/>
<path d="M472.4,124.1l2.2,2.2c-22.4,22.4-44.8,44.8-67.2,67.2c-0.8-0.7-1.5-1.5-2.3-2.2C427.5,169,450,146.6,472.4,124.1z"/>
<path d="M538.7,195.8l2.2,2.2c-22.4,22.4-44.8,44.8-67.2,67.2c-0.8-0.7-1.5-1.5-2.3-2.2C493.8,240.6,516.2,218.2,538.7,195.8z"/>
<path d="M585.2,149.4l2.2,2.2c-22.4,22.4-44.8,44.8-67.2,67.2c-0.8-0.7-1.5-1.5-2.3-2.2C540.3,194.2,562.8,171.8,585.2,149.4z"/>
<rect x="603" y="149.3" width="21.2" height="3"/>
<rect x="622.8" y="149.3" width="21.2" height="3"/>
<rect x="642" y="149.3" width="21.2" height="3"/>
<rect x="654.2" y="149.3" width="21.2" height="3"/>
<rect x="585.2" y="149.3" width="21.2" height="3"/>
<path d="M576.9,228.5l2.2,2.2c-22.4,22.4-44.8,44.8-67.2,67.2c-0.8-0.7-1.5-1.5-2.3-2.2C532,273.3,554.4,250.9,576.9,228.5z"/>
<path d="M514.4,290.7l2.2,2.2c-22.4,22.4-44.8,44.8-67.2,67.2c-0.8-0.7-1.5-1.5-2.3-2.2C469.6,335.6,492,313.1,514.4,290.7z"/>
<path d="M634.5,171.3l2.2,2.2c-22.4,22.4-44.8,44.8-67.2,67.2c-0.8-0.7-1.5-1.5-2.3-2.2C589.6,216.1,612.1,193.7,634.5,171.3z"/>
<rect x="634.4" y="171.1" width="21.2" height="3"/>
</svg>
