<?xml version="1.0" encoding="utf-8"?>
<!-- Generator: Adobe Illustrator 23.0.3, SVG Export Plug-In . SVG Version: 6.00 Build 0)  -->
<svg version="1.1" id="Layer_1" xmlns="http://www.w3.org/2000/svg" xmlns:xlink="http://www.w3.org/1999/xlink" x="0px" y="0px"
	 viewBox="0 0 412 404" style="enable-background:new 0 0 412 404;" xml:space="preserve">
<style type="text/css">
	.st0{fill:#232323;}
</style>
<title>Brain and Machine</title>
<g>
	<g id="XMLID_1_">
		<g>
			<path class="st0" d="M397.8,151.5c2.8,11.2-4.1,22.6-15.4,25.3l-9.1,41.9c-0.1,0.6-0.4,1.2-0.7,1.8l12.3,5.5
				c2.2,1,3.6,3.1,3.6,5.5v43.1c9.4,5.8,12.8,18,7.5,27.7c-5.5,10.2-18.2,14.1-28.4,8.7c-2.1,1.6-4.4,3-6.7,4.3
				c4.3,4.6,6.3,10.9,5.4,17.1c-1.6,11.5-12.1,19.5-23.6,17.9L328,368.1c2.2,9.9-3.1,20-12.5,23.9c-10.7,4.4-23-0.8-27.4-11.5h-30.5
				c-0.6,1.9-1.4,3.7-2.5,5.4c-6.3,9.7-19.3,12.5-29,6.2c-9.7-6.3-12.5-19.3-6.2-29l-11.6-21c-0.5-0.9-0.8-1.9-0.8-2.9V73.3
				c0-0.4,0.1-0.9,0.2-1.4l5.5-22.3c0.3-1.5,1.2-2.8,2.5-3.6l24.1-15.9c1.4-8.5,8-15.4,16.5-17.1c11.4-2.4,22.5,4.9,24.8,16.3
				l21.7,8.7c2,0.7,3.4,2.5,3.7,4.6l2.4,15.6l24.2,10c6.9-1.9,14.4-0.1,19.7,4.8c8.5,7.8,9,21.1,1.2,29.6l23.5,32.9
				C387.1,135.5,395.5,142.1,397.8,151.5z M385.6,296.4c2.2-4.5,0.3-9.9-4.1-12c-0.7-0.1-1.2-0.3-1.8-0.6c-0.7-0.2-1.5-0.3-2.2-0.3
				c-5,0-9,4-9,9s4,9,9,9C380.9,301.5,384.1,299.5,385.6,296.4z M386.5,156.5c0-5-4-9-9-9s-9,4-9,9s4,9,9,9S386.5,161.5,386.5,156.5
				z M376.5,271.7v-36.2l-41.4-18.4c-2.2-1.1-3.6-3.3-3.6-5.7v-26.8h-48.8c-2,6.8-7.3,12.1-14.1,14.1v8.9h13c2.7,0,5.1,1.8,5.8,4.5
				l8.8,34.5h31.2c2-6.8,7.3-12.1,14.1-14.1c11.1-3.3,22.8,3,26.1,14.1c3.3,11.1-3,22.8-14.1,26.1v33c1.9-1,3.7-2,5.5-3.2
				c-1.5-2.8-2.4-5.8-2.5-9C356,281.9,364.9,272.1,376.5,271.7z M361.9,215.6l8.6-39.5c-4.1-1.5-7.6-4.2-10.1-7.8
				c-6.6-9.5-4.2-22.6,5.3-29.2l-21.9-30.4c-6,1.6-12.4,0.4-17.4-3.2c-9.4-6.7-11.6-19.8-4.9-29.2L311.1,72l2.4,15.5
				c0.5,3.3-1.7,6.4-5,6.9s-6.4-1.7-6.9-5l-6.5-41.6l-15.3-6.1c-1.9,4.5-5.3,8.3-9.7,10.5c-10.3,5.3-22.9,1.2-28.2-9.1l-17.6,11.6
				L219.5,74h0.2v16.1h18c3.3,0,6,2.7,6,6v25.3h50.6c2.4-5.8,7.3-10.3,13.4-12.1c11.1-3.3,22.8,3,26.1,14.1
				c3.3,11.1-3,22.8-14.1,26.1v22.9h17.9c3.3,0,6,2.7,6,6v29.1L361.9,215.6z M356.5,252.5c0-5-4-9-9-9s-9,4-9,9s4,9,9,9
				S356.5,257.5,356.5,252.5z M353.6,333.4c2.2-4.4,0.3-9.8-4.2-12c-4.5-2.1-9.8-0.3-12,4.2c-2.1,4.5-0.3,9.8,4.2,12
				c0.7,0.1,1.2,0.3,1.8,0.6c0.7,0.2,1.4,0.3,2.1,0.3C348.9,338.5,352.1,336.5,353.6,333.4z M347.5,88.5c0-5-4-9-9-9s-9,4-9,9
				s4,9,9,9S347.5,93.5,347.5,88.5z M341.4,308.9v-36.3c-6.8-2-12.1-7.3-14.1-14.1h-35.9c-2.7,0-5.1-1.8-5.8-4.5l-8.8-34.5h-57.3v59
				h35.9c2-6.8,7.3-12.1,14.1-14.1c11.1-3.3,22.8,3,26.1,14.1c3.3,11.1-3,22.8-14.1,26.1v9.9h26c3.3,0,6,2.7,6,6v31.9
				c3,0.9,5.8,2.5,8.1,4.6l9.8-12c-3.4-3-5.7-7.1-6.6-11.6C322.6,322.1,330,311.1,341.4,308.9z M322.5,129.5c0-5-4-9-9-9s-9,4-9,9
				s4,9,9,9S322.5,134.5,322.5,129.5z M316.5,372.5c0-5-4-9-9-9s-9,4-9,9s4,9,9,9S316.5,377.5,316.5,372.5z M307.5,172.5v-22.9
				c-7.5-2.2-13.1-8.4-14.6-16.1h-24.4v24.9c6.8,2,12.1,7.3,14.1,14.1H307.5z M301.5,352.4v-25.9h-26c-3.3,0-6-2.7-6-6v-15.9
				c-6.8-2-12.1-7.3-14.1-14.1h-35.9v47.1l9.7,17.6c0.8-0.3,1.5-0.6,2.3-0.8c11.1-3.3,22.8,3,26.1,14.1h29.3
				C288.4,360.8,294,354.6,301.5,352.4z M284.5,284.5c0-5-4-9-9-9s-9,4-9,9s4,9,9,9S284.5,289.5,284.5,284.5z M271.5,178.5
				c0-5-4-9-9-9s-9,4-9,9s4,9,9,9S271.5,183.5,271.5,178.5z M269.5,33.5c0-5-4-9-9-9s-9,4-9,9s4,9,9,9S269.5,38.5,269.5,33.5z
				 M256.5,207.5v-8.9c-6.8-2-12.1-7.3-14.1-14.1c-3.3-11.1,3-22.8,14.1-26.1v-24.9h-19c-3.3,0-6-2.7-6-6v-25.3h-12v105.3H256.5z
				 M246.5,374.5c0-5-4-9-9-9s-9,4-9,9s4,9,9,9S246.5,379.5,246.5,374.5z"/>
			<path class="st0" d="M196.2,63.3v275.9c0,11.2-4.1,22.1-11.5,30.5c-16.9,19.1-46.1,21-65.2,4.1c-7,4.1-14.9,6.2-23,6.2
				c-25.5,0-46.2-20.7-46.2-46.2v-15.1c-9.8-3.6-18.4-9.8-25.1-17.8c-21-25.3-17.5-62.8,7.8-83.8c-2.7-2.5-5.2-5.3-7.2-8.4
				c-1.3-2.1-2.5-4.2-3.5-6.4c-10.1-22.4-0.1-48.6,22.2-58.6c-2.9-10.5-2.9-21.7,0-32.2c8.8-31.7,41.7-50.2,73.4-41.3
				c-0.4-2.4-0.6-4.7-0.6-7.1c0.1-21.8,17.8-39.5,39.6-39.4C178.7,23.7,196.3,41.5,196.2,63.3z M184.3,339.2v-276
				c0-4.6-1.2-9.2-3.5-13.3c-7.4-13.3-24.1-18.1-37.4-10.7c-13.3,7.4-18.1,24.1-10.7,37.4c1.6,0.9,3,1.9,4.5,3
				c2.6,2,3.2,5.7,1.2,8.4c-2,2.6-5.7,3.2-8.4,1.2C114.8,78,94.4,76.9,78,86.3c-22.7,13.1-30.5,42.2-17.4,65c0.1,0,0.1,0.1,0.1,0.1
				c1.6,2.9,0.6,6.6-2.3,8.2c-2.9,1.6-6.6,0.6-8.2-2.3c-0.4-0.9-0.9-1.7-1.3-2.5c-1.4,0.7-2.8,1.4-4.1,2.3c-3.1,2-5.8,4.6-8,7.6
				c-10.6,14.3-7.6,34.6,6.7,45.2c8.5-4.5,18-6.8,27.6-6.8c3.3,0,6,2.7,6,6c0,3.3-2.7,6-6,6c-26.3,0.1-47.6,21.3-47.6,47.6
				c0.1,26.3,21.3,47.6,47.6,47.6c3.3,0,6,2.7,6,6c0,3.3-2.7,6-6,6c-2.9,0-5.8-0.2-8.7-0.6v12.1c0,18.9,15.3,34.2,34.2,34.2
				s34.2-15.3,34.2-34.2c0-3.3,2.7-6,6-6s6,2.7,6,6c0,12.2-4.8,23.9-13.4,32.5c6,4.6,13.3,7.1,20.8,7.1
				C169,373.4,184.3,358.1,184.3,339.2z"/>
			<path class="st0" d="M166.7,215.2c2.7,2,3.4,5.6,1.4,8.3s-5.7,3.3-8.4,1.4c-1.7-1.1-3.5-2.1-5.4-2.7
				c-10.5-3.5-21.7,2.2-25.2,12.6c-0.6,2-1,4.1-1,6.2c0,0.9,0,1.7,0.2,2.6c0.4,3.3-1.9,6.3-5.2,6.7c-0.3,0.1-0.5,0.1-0.8,0.1
				c-3,0-5.5-2.2-5.9-5.2c-1.8-13.9,5.8-27.4,18.6-33.2c2.8-6.7,1.7-14.3-2.8-20c-2.1-2.5-1.7-6.3,0.9-8.4c2.5-2.1,6.3-1.7,8.4,0.9
				c5.5,6.9,7.9,15.9,6.6,24.7C154.8,209.2,161.3,211.3,166.7,215.2z"/>
			<path class="st0" d="M160.3,112c2.3,2.3,2.3,6.1,0,8.5c-4.8,4.8-11.2,7.6-18,7.8c0,0.5,0.1,1.1,0.1,1.6c0,4.4-1.1,8.7-3.3,12.6
				c-1.7,2.9-5.3,3.9-8.2,2.3c-2.9-1.7-3.9-5.3-2.3-8.2c1.7-3.1,2.2-6.8,1.3-10.3c-1.9-7.5-9.6-12.1-17.2-10.2
				c-3.2,0.9-6.5-1.1-7.3-4.3c-0.8-3.2,1.1-6.5,4.3-7.3c10.8-2.7,22.1,1.6,28.3,10.9c0.1,0.2,0.2,0.3,0.3,0.5
				c4.8,1.2,9.9-0.2,13.4-3.8c0.1-0.1,0.1-0.1,0.1-0.1C154.1,109.7,157.9,109.7,160.3,112z"/>
			<path class="st0" d="M138.8,288.7c1.9,2.8,1.2,6.5-1.5,8.4c-9,6.3-20.3,8.3-30.9,5.5c-0.2,8.3-3.2,16.4-8.5,22.8
				c-2.1,2.5-5.9,2.9-8.4,0.8c-2.6-2-3-5.8-0.9-8.4c5.2-6.3,7-14.8,4.9-22.7c-0.1-0.2-0.2-0.4-0.2-0.6c-1.2-4.1-3.4-7.8-6.4-10.8
				c-0.1-0.1-0.1-0.1-0.1-0.1c-2.3-2.4-2.3-6.2,0.1-8.5c2.4-2.3,6.2-2.3,8.5,0.1c3.9,3.9,6.9,8.7,8.8,13.9
				c8.4,4.3,18.5,3.6,26.2-1.8C133.1,285.4,136.8,286.1,138.8,288.7z"/>
			<path class="st0" d="M83.7,184c0,1.5-0.6,3-1.7,4.2c-2.3,2.4-6.1,2.4-8.5,0.1c-2-2-3.6-4.2-4.9-6.7c-0.4,0.2-0.8,0.5-1.3,0.7
				c-3,1.4-6.5,0.2-8-2.8c-1.4-3-0.2-6.5,2.8-8c6-2.9,9.2-9.7,7.5-16.2c-0.8-3.2,1.1-6.5,4.3-7.3c3.2-0.8,6.5,1.1,7.3,4.3
				c1.8,6.9,0.7,14.3-3.1,20.3c0.6,2.7,2,5.2,3.8,7.1C83.1,180.9,83.7,182.4,83.7,184z"/>
		</g>
		<g>
		</g>
	</g>
</g>
</svg>
