<?xml version="1.0" encoding="utf-8"?>
<!-- Generator: Adobe Illustrator 23.0.4, SVG Export Plug-In . SVG Version: 6.00 Build 0)  -->
<svg version="1.1" id="Layer_1" xmlns="http://www.w3.org/2000/svg" xmlns:xlink="http://www.w3.org/1999/xlink" x="0px" y="0px"
	 viewBox="0 0 512 640" style="enable-background:new 0 0 512 640;" xml:space="preserve">
<style type="text/css">
	.st0{fill:#FFFFFF;}
</style>
<title>Brain and Machine</title>
<g>
	<path class="st0" d="M207.9,75.7c-21.8-0.1-39.5,17.6-39.6,39.4c0,2.4,0.2,4.7,0.6,7.1c-31.7-8.9-64.6,9.6-73.4,41.3
		c-2.9,10.5-2.9,21.7,0,32.2c-22.3,10-32.3,36.2-22.2,58.6c1,2.2,2.2,4.3,3.5,6.4c2,3.1,4.5,5.9,7.2,8.4
		c-25.3,21-28.8,58.5-7.8,83.8c6.7,8,15.3,14.2,25.1,17.8v15.1c0,25.5,20.7,46.2,46.2,46.2c8.1,0,16-2.1,23-6.2
		c19.1,16.9,48.3,15,65.2-4.1c7.4-8.4,11.5-19.3,11.5-30.5V115.3C247.3,93.5,229.7,75.7,207.9,75.7z M235.3,391.2
		c0,18.9-15.3,34.2-34.1,34.2c-7.5,0-14.8-2.5-20.8-7.1c8.6-8.6,13.4-20.3,13.4-32.5c0-3.3-2.7-6-6-6s-6,2.7-6,6
		c0,18.9-15.3,34.2-34.2,34.2s-34.2-15.3-34.2-34.2v-12.1c2.9,0.4,5.8,0.6,8.7,0.6c3.3,0,6-2.7,6-6s-2.7-6-6-6
		c-26.3,0-47.5-21.3-47.6-47.6c0-26.3,21.3-47.5,47.6-47.6c3.3,0,6-2.7,6-6s-2.7-6-6-6c-9.6,0-19.1,2.3-27.6,6.8
		c-14.3-10.6-17.3-30.9-6.7-45.2c2.2-3,4.9-5.6,8-7.6c1.3-0.9,2.7-1.6,4.1-2.3c0.4,0.8,0.9,1.6,1.3,2.5c1.6,2.9,5.3,3.9,8.2,2.3
		c2.9-1.6,3.9-5.3,2.3-8.2c0,0,0-0.1-0.1-0.1c-13.1-22.8-5.3-51.9,17.4-65c16.4-9.4,36.8-8.3,52,2.9c2.7,2,6.4,1.4,8.4-1.2
		c2-2.7,1.4-6.4-1.2-8.4l0,0c-1.5-1.1-2.9-2.1-4.5-3c-7.4-13.3-2.6-30,10.7-37.4s30-2.6,37.4,10.7c2.3,4.1,3.5,8.7,3.5,13.3
		L235.3,391.2L235.3,391.2z"/>
	<path class="st0" d="M217.7,267.2c-5.4-3.9-11.9-6-18.6-6c1.3-8.8-1.1-17.8-6.6-24.7c-2.1-2.6-5.9-3-8.4-0.9
		c-2.6,2.1-3,5.9-0.9,8.4c4.5,5.7,5.6,13.3,2.8,20c-12.8,5.8-20.4,19.3-18.6,33.2c0.4,3,2.9,5.2,5.9,5.2c0.3,0,0.5,0,0.8-0.1
		c3.3-0.4,5.6-3.4,5.2-6.7l0,0c-0.4-3-0.1-6,0.8-8.8c3.5-10.4,14.7-16.1,25.2-12.6c1.9,0.6,3.7,1.6,5.4,2.7c2.7,1.9,6.4,1.3,8.4-1.4
		S220.4,269.2,217.7,267.2z"/>
	<path class="st0" d="M129.1,224.6c3.8-6,4.9-13.4,3.1-20.3c-0.8-3.2-4.1-5.1-7.3-4.3s-5.1,4.1-4.3,7.3c1.7,6.5-1.5,13.3-7.5,16.2
		c-3,1.5-4.2,5-2.8,8c1.5,3,5,4.2,8,2.8c0.5-0.2,0.9-0.5,1.3-0.7c1.3,2.5,2.9,4.7,4.9,6.7c2.4,2.3,6.2,2.3,8.5-0.1l0,0l0,0
		c2.3-2.4,2.3-6.2-0.1-8.5C131.1,229.8,129.7,227.3,129.1,224.6z"/>
	<path class="st0" d="M163.7,168.1L163.7,168.1c7.6-1.9,15.3,2.7,17.2,10.2c0.9,3.5,0.4,7.2-1.3,10.3c-1.6,2.9-0.6,6.5,2.3,8.2
		c2.9,1.6,6.5,0.6,8.2-2.3l0,0c2.4-4.4,3.5-9.3,3.2-14.2c6.8-0.2,13.2-3,18-7.8c2.3-2.4,2.3-6.2,0-8.5c-2.4-2.3-6.2-2.3-8.5,0
		c0,0,0,0-0.1,0.1c-3.5,3.6-8.6,5-13.4,3.8c-0.1-0.2-0.2-0.3-0.3-0.5c-6.2-9.3-17.5-13.6-28.3-10.9c-3.2,0.8-5.1,4.1-4.3,7.3
		S160.5,169,163.7,168.1z"/>
	<path class="st0" d="M181.4,339.3c-7.7,5.4-17.8,6.1-26.2,1.8c-1.9-5.2-4.9-10-8.8-13.9c-2.3-2.4-6.1-2.4-8.5-0.1s-2.4,6.1-0.1,8.5
		c0,0,0,0,0.1,0.1c3,3,5.2,6.7,6.4,10.8c0,0.2,0.1,0.4,0.2,0.6c2.1,7.9,0.3,16.4-4.9,22.7c-2.1,2.6-1.7,6.4,0.9,8.4
		c2.5,2.1,6.3,1.7,8.4-0.8c5.3-6.4,8.3-14.5,8.5-22.8c10.6,2.8,21.9,0.8,30.9-5.5c2.7-1.9,3.4-5.6,1.5-8.4
		C187.8,338.1,184.1,337.4,181.4,339.3z"/>
	<path class="st0" d="M439.5,326.6v-43.1c0-2.4-1.4-4.5-3.6-5.5l-12.3-5.5c0.3-0.6,0.6-1.2,0.7-1.8l9.1-41.9
		c11.3-2.7,18.2-14.1,15.4-25.3c-2.3-9.4-10.7-16-20.3-16L405,154.6c7.8-8.5,7.3-21.8-1.2-29.6c-5.3-4.9-12.8-6.7-19.7-4.8l-24.2-10
		l-2.4-15.6c-0.3-2.1-1.7-3.9-3.7-4.6l-21.7-8.7c-2.3-11.4-13.4-18.7-24.8-16.3c-8.5,1.7-15.1,8.6-16.5,17.1L266.7,98
		c-1.3,0.8-2.2,2.1-2.5,3.6l-5.5,22.3c-0.1,0.5-0.2,1-0.2,1.4v265.9c0,1,0.3,2,0.8,2.9l11.6,21c-6.3,9.7-3.5,22.7,6.2,29
		s22.7,3.5,29-6.2c1.1-1.7,1.9-3.5,2.5-5.4h30.5c4.4,10.7,16.7,15.9,27.4,11.5c9.4-3.9,14.7-14,12.5-23.9l14.7-17.8
		c11.5,1.6,22-6.4,23.6-17.9c0.9-6.2-1.1-12.5-5.4-17.1c2.3-1.3,4.6-2.7,6.7-4.3c10.2,5.4,22.9,1.5,28.4-8.7
		C452.3,344.6,448.9,332.4,439.5,326.6z M428.5,199.5c5,0,9,4,9,9s-4,9-9,9s-9-4-9-9S423.5,199.5,428.5,199.5z M389.5,131.5
		c5,0,9,4,9,9s-4,9-9,9s-9-4-9-9S384.5,131.5,389.5,131.5z M311.5,76.5c5,0,9,4,9,9s-4,9-9,9s-9-4-9-9S306.5,76.5,311.5,76.5z
		 M270.5,126l4.8-19.3l17.6-11.6c5.3,10.3,17.9,14.4,28.2,9.1c4.4-2.2,7.8-6,9.7-10.5l15.3,6.1l6.5,41.6c0.5,3.3,3.6,5.5,6.9,5
		s5.5-3.6,5-6.9l-2.4-15.5l10.4,4.3c-6.7,9.4-4.5,22.5,4.9,29.2c5,3.6,11.4,4.8,17.4,3.2l21.9,30.4c-9.5,6.6-11.9,19.7-5.3,29.2
		c2.5,3.6,6,6.3,10.1,7.8l-8.6,39.5l-18.3-8.1v-29.1c0-3.3-2.7-6-6-6h-17.9v-22.9c11.1-3.3,17.4-15,14.1-26.1s-15-17.4-26.1-14.1
		c-6.1,1.8-11,6.3-13.4,12.1h-50.6v-25.3c0-3.3-2.7-6-6-6h-18V126H270.5z M319.5,210.4v-24.9h24.4c1.5,7.7,7.1,13.9,14.6,16.1v22.9
		h-24.9C331.6,217.7,326.3,212.4,319.5,210.4z M322.5,230.5c0,5-4,9-9,9s-9-4-9-9s4-9,9-9S322.5,225.5,322.5,230.5z M355.5,181.5
		c0-5,4-9,9-9s9,4,9,9s-4,9-9,9S355.5,186.5,355.5,181.5z M270.5,154.2h12v25.3c0,3.3,2.7,6,6,6h19v24.9
		c-11.1,3.3-17.4,15-14.1,26.1c2,6.8,7.3,12.1,14.1,14.1v8.9h-37V154.2z M288.5,435.5c-5,0-9-4-9-9s4-9,9-9s9,4,9,9
		S293.5,435.5,288.5,435.5z M337.9,420.5h-29.3c-3.3-11.1-15-17.4-26.1-14.1c-0.8,0.2-1.5,0.5-2.3,0.8l-9.7-17.6v-47.1h35.9
		c2,6.8,7.3,12.1,14.1,14.1v15.9c0,3.3,2.7,6,6,6h26v25.9C345,406.6,339.4,412.8,337.9,420.5z M317.5,336.5c0-5,4-9,9-9s9,4,9,9
		s-4,9-9,9S317.5,341.5,317.5,336.5z M358.5,433.5c-5,0-9-4-9-9s4-9,9-9s9,4,9,9S363.5,433.5,358.5,433.5z M372.6,409
		c-2.3-2.1-5.1-3.7-8.1-4.6v-31.9c0-3.3-2.7-6-6-6h-26v-9.9c11.1-3.3,17.4-15,14.1-26.1s-15-17.4-26.1-14.1
		c-6.8,2-12.1,7.3-14.1,14.1h-35.9v-59h57.3l8.8,34.5c0.7,2.7,3.1,4.5,5.8,4.5h35.9c2,6.8,7.3,12.1,14.1,14.1v36.3
		c-11.4,2.2-18.8,13.2-16.6,24.5c0.9,4.5,3.2,8.6,6.6,11.6L372.6,409z M389.5,304.5c0-5,4-9,9-9s9,4,9,9s-4,9-9,9
		S389.5,309.5,389.5,304.5z M404.6,385.4c-1.5,3.1-4.7,5.1-8.1,5.1l0,0c-0.7,0-1.4-0.1-2.1-0.3c-0.6-0.3-1.1-0.5-1.8-0.6
		c-4.5-2.2-6.3-7.5-4.2-12c2.2-4.5,7.5-6.3,12-4.2C404.9,375.6,406.8,381,404.6,385.4z M407.5,345.5c0.1,3.2,1,6.2,2.5,9
		c-1.8,1.2-3.6,2.2-5.5,3.2v-33c11.1-3.3,17.4-15,14.1-26.1s-15-17.4-26.1-14.1c-6.8,2-12.1,7.3-14.1,14.1h-31.2l-8.8-34.5
		c-0.7-2.7-3.1-4.5-5.8-4.5h-13v-8.9c6.8-2,12.1-7.3,14.1-14.1h48.8v26.8c0,2.4,1.4,4.6,3.6,5.7l41.4,18.4v36.2
		C415.9,324.1,407,333.9,407.5,345.5z M436.6,348.4c-1.5,3.1-4.7,5.1-8.1,5.1c-5,0-9-4-9-9s4-9,9-9c0.7,0,1.5,0.1,2.2,0.3
		c0.6,0.3,1.1,0.5,1.8,0.6C436.9,338.5,438.8,343.9,436.6,348.4z"/>
</g>
</svg>
